<?xml version="1.0" encoding="UTF-8"?><svg id="Capa_1" xmlns="http://www.w3.org/2000/svg" width="1404.76" height="652.18" viewBox="0 0 1404.76 652.18"><path d="m1369.98,565.21h-96.51l-66.01-66.01c9.09-10.88,18.76-23.9,27.93-38.99,18.08-29.74,30.35-61.04,36.62-93.35,3.17-1.85,6.05-4.21,8.53-7.01l2.08-2.36c6.72-7.61,18.07-23.91,18.61-47.56.54-23.73-10.14-40.55-16.55-48.48l-2.3-2.84c-3.78-4.67-8.65-8.22-14.09-10.4-9.98-38.69-28.45-74.71-55.12-107.41-23.03-28.23-45.69-45.88-57.15-53.89-5.84-4.08-12.8-6.27-19.93-6.27h-179.09c-5.98-10.53-17.3-17.64-30.27-17.64h-242.62v-10.06c0-4.31-.8-8.58-2.36-12.6l-.35-.91c-3.36-8.66-8.41-16.19-14.96-22.34-11.56-10.88-27.79-17.12-44.52-17.12-.73,0-1.45.01-2.2.04-16.74.55-32.46,7.42-43.16,18.87-6.46,6.9-11.03,15.19-13.57,24.63l-.18.67c-.79,2.95-1.2,5.99-1.2,9.05v27.41h-86.79c-3.4-4.66-7.59-8.78-12.46-12.27-.04-.04-.07-.09-.11-.13v-3.32c0-19.21-15.57-34.79-34.79-34.79h-19.23c-19.21,0-34.79,15.57-34.79,34.79v3.33c-.78.92-1.51,1.88-2.21,2.86-3.4,2.85-6.39,6.04-8.94,9.52h-87.34c-5.47,0-10.87,1.29-15.75,3.77-34.93,17.74-65.78,43.76-89.21,75.25-19.4,26.07-33.77,55.96-42.11,87.34-10.35,6.5-18.83,15.74-24.23,26.78-13.05,26.69-3.34,50.87-.06,57.64,4.55,9.39,11.18,17.37,19.4,23.55,10.07,59.12,40.78,112.85,86.02,151.56l-58.65,58.65H34.79c-19.21,0-34.79,15.57-34.79,34.79v17.39c0,19.21,15.57,34.79,34.79,34.79h1335.19c19.21,0,34.79-15.57,34.79-34.79v-17.39c0-19.21-15.57-34.79-34.79-34.79Zm0,52.18H34.79v-1.56h0v-8.7h0,0v-8.7h129.97l96.78-96.78c-60.35-36.13-99.91-99.09-106.43-168.93-6.14-1.81-15.23-6.14-20.23-16.45-.73-1.5-3.24-7.25-3.05-14.69-.1-4.21.61-9.06,3.05-14.05,4.37-8.93,13.02-15.24,22.99-17.12,12.43-66.75,55.25-125.13,117.06-156.52h112.22c-.09-.94-.11-1.86-.09-2.75-.15-3.37.47-6.44,1.86-9.17,1.78-3.51,4.9-6.49,9.12-8.72.47-2.02,1.41-3.69,2.81-4.99,2.31-2.13,4.88-2.41,7.36-2.24v-22.62h19.23v1.56h0v21.11c2.44-.18,5,.06,7.3,2.14,1.25,1.13,2.14,2.55,2.66,4.24,5.04,2.29,8.72,5.54,10.74,9.52,1.39,2.74,2.01,5.81,1.86,9.18.03.89,0,1.81-.09,2.74h149.82v-14.94h-3.37v-1.56h0v-45.7l.18-.67c1.05-3.88,2.86-7.22,5.38-9.91,4.43-4.75,11.33-7.63,18.91-7.88,8.24-.27,16.37,2.59,21.74,7.65,2.76,2.6,4.91,5.83,6.38,9.6l.35.91v1.56h0v43.28h277.4v1.56h0v16.08h209.37c11.35,7.93,87.87,63.36,103.33,165.07h15.92l2.3,2.84c2.75,3.39,9.1,12.7,8.81,25.8,0,.07,0,.14-.01.21,0,.45.02.89.01,1.35-.29,13.06-7.03,22.06-9.91,25.32l-2.08,2.36-13.36.91c-7.76,82.57-58.11,139.46-81.2,161.52l99.17,99.17h110.92v1.56h0v17.39Z" style="fill:#2f466f;"/><rect x="708.62" y="108.24" width="140.86" height="4.6" style="fill:#2f466f;"/><polygon points="949.7 337.06 912.95 208.84 859.03 208.84 924.05 394.98 975.34 394.98 1039.57 208.84 985.91 208.84 949.7 337.06" style="fill:#2f466f;"/><polygon points="718.9 208.84 718.9 394.98 852.68 394.98 852.68 351.6 770.46 351.6 770.46 350.04 770.46 350.04 770.46 320.43 838.66 320.43 838.66 280.22 770.46 280.22 770.46 278.66 770.46 278.66 770.46 252.22 850.3 252.22 850.3 208.84 718.9 208.84" style="fill:#2f466f;"/><path d="m154.16,311.48c0-.26,0-.52,0-.78,0-9.49.62-18.88,1.81-28.14-5.38,1.95-9.86,5.78-12.33,10.82-1.4,2.87-1.96,5.7-2.05,8.27.17,4.72,1.77,8.23,2.06,8.82,2.57,5.29,6.87,8.32,10.68,10.04-.1-2.74-.17-5.48-.17-8.24,0-.26,0-.52,0-.79Z" style="fill:#2f466f;"/><path d="m1246.86,320.45c1.86-2.75,4.08-7.2,4.27-12.96-.16-5-1.86-9-3.44-11.67h-6.34c.53,6.63.76,13.13.74,19.49,0,.46,0,.92,0,1.38,0,.41,0,.82,0,1.22,0,.96-.02,1.91-.04,2.86l4.82-.33Z" style="fill:#2f466f;"/><rect x="859.92" y="108.24" width="13.86" height="4.6" style="fill:#2f466f;"/><rect x="660.63" y="108.24" width="13.59" height="4.6" style="fill:#2f466f;"/><rect x="684.65" y="108.24" width="13.53" height="4.6" style="fill:#2f466f;"/><rect x="908.36" y="108.24" width="7.92" height="4.6" style="fill:#2f466f;"/><rect x="884.21" y="108.24" width="13.72" height="4.6" style="fill:#2f466f;"/><path d="m280.28,509.08l-89.36,89.36h1041.98l-89.36-89.36h-427.7v10.41c0,6.33-2.49,12.28-7.03,16.74-4.39,4.32-10.11,6.68-16.14,6.68-.13,0-.27,0-.4,0-12.34-.21-22.34-10.15-22.75-22.62v-.29s0-1.56,0-1.56h0v-9.37h-389.23Z" style="fill:#2f466f;"/><path d="m404.88,103.12c-3.33,1.35-5.63,3.12-6.64,5.12-.43.84-.64,1.77-.71,2.74.03.39.06.78.12,1.17h41.79c.06-.38.1-.77.12-1.16-.07-.97-.29-1.91-.71-2.74-1.13-2.23-3.9-4.2-7.81-5.56l-3.41-1.19-.09-3.41c-.34.04-.7.09-1.02.13-1.87.25-4.44.59-7.92.62h-.25c-.2,0-.4,0-.59,0-3.68-.01-6.41-.38-8.4-.65-.38-.05-.8-.11-1.19-.16l.04,2.18h-.03s.03,1.56.03,1.56l-3.33,1.35Z" style="fill:#2f466f;"/><path d="m496.44,215.84c-6.44-4.67-14.06-7.01-22.87-7.01h-108.92v186.14h92.27c12.33,0,23.62-1.67,33.84-5.02,10.22-3.35,18.37-8.55,24.45-15.6,5.95-6.89,8.98-15.82,9.11-26.76-.13-12.65-3.25-22.87-9.37-30.63-5.64-7.15-13.12-12.36-22.42-15.65-.55-.57-1.1-1.14-1.68-1.68.19-.09.37-.18.56-.28-.65-.21-1.31-.42-1.97-.62,8.99-4.05,15.73-10.13,20.22-18.24,4.37-7.88,6.61-16.02,6.73-24.41-.12-7.63-1.83-15.01-5.14-22.15-3.44-7.4-8.37-13.44-14.81-18.11Zm-24.45,120.45c0,.25-.01.48-.02.72,0,.28.02.55.02.84,0,3.17-.66,5.91-1.98,8.2-1.32,2.29-3.13,4.06-5.42,5.29-2.29,1.24-4.85,1.85-7.67,1.85h-40.71v-1.56h0v-31.46h42.56c2.64,0,4.93.71,6.87,2.12,1.94,1.41,3.48,3.3,4.63,5.68,1.14,2.38,1.72,5.16,1.72,8.33Zm-6.61-69.29c0,3.88-.71,6.87-2.12,8.99-1.41,2.11-3.17,3.57-5.29,4.36-2.12.79-4.32,1.19-6.61,1.19h-35.16v-1.56h0v-28.82h36.75c2.29,0,4.36.49,6.21,1.45,1.85.97,3.35,2.47,4.49,4.49,1.14,2.03,1.72,4.8,1.72,8.33,0,.25-.01.49-.02.74,0,.27.02.54.02.83Z" style="fill:#2f466f;"/><path d="m686.9,518.26c.16,3.1,2.68,5.64,5.66,5.69,1.5.03,2.92-.57,4.05-1.69.69-.67,1.83-2.13,1.83-4.33v-5.03h-11.54v5.36Z" style="fill:#2f466f;"/><polygon points="610.18 98.95 610.18 112.85 650.19 112.85 650.19 108.24 636.75 108.24 636.75 106.68 636.75 106.68 636.75 98.95 610.18 98.95" style="fill:#2f466f;"/><path d="m621.18,45.23c-4.83.16-9.06,1.82-11.63,4.57-1.22,1.3-2.14,2.94-2.75,4.88v1.33h32.07v-1.03c-.87-1.94-2.03-3.6-3.45-4.93-3.4-3.2-8.73-5.01-14.25-4.82Z" style="fill:#2f466f;"/><rect x="606.81" y="77.48" width="32.07" height="7.58" style="fill:#2f466f;"/><path d="m643.56,208.84h-57.63l-59.51,186.14h52.11l9.7-36.75h53.03l9.7,36.75h51.85l-59.25-186.14Zm-46.26,116.59l.41-1.56h-.41l17.44-66.09,17.44,66.09h-.41l.41,1.56h-34.89Z" style="fill:#2f466f;"/><polygon points="1369.98 615.83 34.79 615.83 34.79 617.39 1369.98 617.39 1369.98 600 1369.98 600 1369.98 615.83" style="fill:#f2f2f2;"/><polygon points="708.62 106.68 708.62 112.85 708.62 112.85 708.62 108.24 849.48 108.24 849.48 106.68 708.62 106.68" style="fill:#f2f2f2;"/><polygon points="949.7 335.5 912.95 207.28 858.49 207.28 859.03 208.84 912.95 208.84 949.7 337.06 985.91 208.84 1039.57 208.84 1040.11 207.28 985.91 207.28 949.7 335.5" style="fill:#f2f2f2;"/><rect x="770.46" y="350.04" width="82.22" height="1.56" style="fill:#f2f2f2;"/><rect x="770.46" y="278.66" width="68.21" height="1.56" style="fill:#f2f2f2;"/><path d="m155.96,282.56c.07-.55.14-1.1.22-1.64-5.47,1.92-10.05,5.79-12.55,10.9-1.7,3.47-2.15,6.88-2.05,9.83.09-2.56.65-5.4,2.05-8.27,2.46-5.04,6.95-8.87,12.33-10.82Z" style="fill:#f2f2f2;"/><path d="m154.15,312.26c0,2.76.07,5.5.17,8.24.02,0,.04.02.05.02-.13-3.01-.21-6.02-.22-9.05,0,.26,0,.52,0,.79Z" style="fill:#f2f2f2;"/><path d="m1242.05,320.78c.02-.95.03-1.9.04-2.86-.01.96-.05,1.91-.07,2.86h.03Z" style="fill:#f2f2f2;"/><path d="m1254.45,335.28l-13.36.91c-7.85,83.53-59.29,140.78-82,162.28l.8.8c23.09-22.07,73.44-78.95,81.2-161.52l13.36-.91,2.08-2.36c2.88-3.26,9.61-12.26,9.91-25.32.01-.46,0-.9-.01-1.35-.36,12.94-7.03,21.87-9.9,25.11l-2.08,2.36Z" style="fill:#f2f2f2;"/><path d="m1251.13,307.5c0-.08,0-.16.01-.24.13-5.61-1.74-10.09-3.45-12.99h-6.46s0,.06,0,.09c.04.49.07.98.11,1.47h6.34c1.57,2.67,3.27,6.67,3.44,11.67Z" style="fill:#f2f2f2;"/><path d="m1242.1,315.32c0,.46,0,.92,0,1.38,0-.46,0-.92,0-1.38Z" style="fill:#f2f2f2;"/><polygon points="859.92 112.85 859.92 112.85 859.92 108.24 873.77 108.24 873.77 106.68 859.92 106.68 859.92 112.85" style="fill:#f2f2f2;"/><polygon points="684.65 112.85 684.65 108.24 698.18 108.24 698.18 106.68 684.65 106.68 684.65 112.85 684.65 112.85" style="fill:#f2f2f2;"/><polygon points="908.36 106.68 908.36 112.85 908.36 112.85 908.36 108.24 916.29 108.24 916.29 106.68 908.36 106.68" style="fill:#f2f2f2;"/><polygon points="884.21 112.85 884.21 108.24 897.93 108.24 897.93 106.68 884.21 106.68 884.21 112.85 884.21 112.85" style="fill:#f2f2f2;"/><path d="m155.11,331.16c-6.14-1.81-15.23-6.14-20.23-16.45-.68-1.4-2.89-6.46-3.05-13.13-.19,7.44,2.32,13.19,3.05,14.69,5,10.31,14.1,14.65,20.23,16.45,6.52,69.84,46.08,132.81,106.43,168.93l.98-.98c-60.9-36.03-100.85-99.3-107.4-169.52Z" style="fill:#f2f2f2;"/><polygon points="190.92 598.44 280.28 509.08 669.51 509.08 669.51 507.51 280.28 507.51 189.36 598.44 190.92 598.44" style="fill:#f2f2f2;"/><path d="m417.76,98.84c.19,0,.39,0,.59,0h.25c3.48-.04,6.05-.38,7.92-.63.33-.04.69-.09,1.02-.13l.09,3.41,3.41,1.19c3.9,1.36,6.68,3.33,7.81,5.56.43.84.64,1.78.71,2.74.1-1.51-.06-3.02-.71-4.31-1.13-2.23-3.9-4.2-7.81-5.56l-3.41-1.19-.09-3.41c-.34.04-.7.09-1.02.13-1.87.25-4.44.59-7.92.62h-.25c-.2,0-.4,0-.59,0-3.68-.01-6.41-.38-8.4-.65-.39-.05-.83-.11-1.22-.16,0,.05,0,.1,0,.16l.03,1.41c.39.05.81.1,1.19.16,1.99.27,4.72.64,8.4.65Z" style="fill:#f2f2f2;"/><path d="m397.53,110.99c.07-.97.29-1.91.71-2.74,1.01-2,3.31-3.77,6.64-5.12l3.33-1.35-.03-1.55-3.3,1.34c-3.33,1.35-5.63,3.12-6.64,5.12-.65,1.28-.81,2.79-.71,4.3Z" style="fill:#f2f2f2;"/><path d="m449.93,113.89c.09-.94.11-1.85.09-2.74-.04.89-.13,1.81-.28,2.74h.2Z" style="fill:#f2f2f2;"/><path d="m387.08,111.13c-.03.9,0,1.81.09,2.75h.2c-.15-.94-.24-1.86-.28-2.75Z" style="fill:#f2f2f2;"/><path d="m496.44,214.28c-6.44-4.67-14.06-7.01-22.87-7.01h-108.92v187.7h0v-186.14h108.92c8.81,0,16.43,2.34,22.87,7.01,6.43,4.67,11.37,10.71,14.81,18.11,3.31,7.14,5.02,14.52,5.14,22.15,0-.24.01-.47.01-.71,0-7.93-1.72-15.6-5.16-23-3.44-7.4-8.37-13.44-14.81-18.11Z" style="fill:#f2f2f2;"/><path d="m492.52,301.32c9.3,3.28,16.78,8.49,22.42,15.65,6.12,7.76,9.24,17.98,9.37,30.63,0-.25.01-.49.01-.73,0-13.04-3.13-23.53-9.39-31.46-5.87-7.44-13.72-12.79-23.54-16.04-.18.09-.37.19-.56.28.58.54,1.13,1.11,1.68,1.68Z" style="fill:#f2f2f2;"/><path d="m669.52,520.29c.41,12.47,10.41,22.4,22.75,22.62.13,0,.27,0,.4,0,6.04,0,11.76-2.36,16.14-6.68,4.54-4.47,7.03-10.41,7.03-16.74v-10.41h427.7l89.36,89.36h1.56l-90.92-90.92h-427.7v10.41c0,6.33-2.49,12.28-7.03,16.74-4.39,4.32-10.11,6.68-16.14,6.68-.13,0-.27,0-.4,0-12.34-.21-22.34-10.15-22.75-22.62v-.28s0,1.56,0,1.56v.29Z" style="fill:#f2f2f2;"/><polygon points="686.9 518.26 686.9 518.26 686.9 512.9 698.45 512.9 698.45 511.34 686.9 511.34 686.9 518.26" style="fill:#f2f2f2;"/><rect x="596.37" y="97.39" width="3.37" height="1.56" style="fill:#f2f2f2;"/><polygon points="610.18 112.85 610.18 98.95 636.75 98.95 636.75 97.39 610.18 97.39 610.18 112.85 610.18 112.85" style="fill:#f2f2f2;"/><rect x="636.75" y="106.68" width="13.44" height="1.56" style="fill:#f2f2f2;"/><polygon points="660.63 112.85 660.63 108.24 674.22 108.24 674.22 106.68 660.63 106.68 660.63 112.85 660.63 112.85" style="fill:#f2f2f2;"/><path d="m606.81,56.02v-1.33c.61-1.94,1.52-3.57,2.75-4.88,2.56-2.75,6.8-4.42,11.63-4.57,5.53-.19,10.85,1.62,14.25,4.82,1.42,1.33,2.58,2.99,3.45,4.93v-1.56c-.87-1.94-2.03-3.6-3.45-4.93-3.4-3.2-8.73-5.01-14.25-4.82-4.83.16-9.06,1.82-11.63,4.57-1.22,1.3-2.14,2.94-2.75,4.88v2.9h0Z" style="fill:#f2f2f2;"/><polygon points="606.81 85.06 606.81 85.06 606.81 77.48 638.88 77.48 638.88 75.91 606.81 75.91 606.81 85.06" style="fill:#f2f2f2;"/><polygon points="718.9 208.84 850.3 208.84 850.3 207.28 718.9 207.28 718.9 394.98 718.9 394.98 718.9 208.84" style="fill:#f2f2f2;"/><polygon points="526.41 394.98 585.93 208.84 643.56 208.84 702.81 394.98 703.31 394.98 643.56 207.28 585.93 207.28 525.91 394.98 526.41 394.98" style="fill:#f2f2f2;"/><polygon points="631.78 323.86 597.71 323.86 597.3 325.43 632.19 325.43 631.78 323.86" style="fill:#f2f2f2;"/><path d="m464.58,349.77c-2.29,1.24-4.85,1.85-7.67,1.85h-40.71v1.56h40.71c2.82,0,5.37-.62,7.67-1.85,2.29-1.23,4.1-2.99,5.42-5.29,1.32-2.29,1.98-5.02,1.98-8.2,0-.28-.01-.56-.02-.84-.09,2.86-.74,5.36-1.96,7.47-1.32,2.29-3.13,4.06-5.42,5.29Z" style="fill:#f2f2f2;"/><path d="m457.97,278.79c-2.12.79-4.32,1.19-6.61,1.19h-35.16v1.56h35.16c2.29,0,4.49-.4,6.61-1.19,2.12-.79,3.87-2.25,5.29-4.36,1.41-2.12,2.12-5.11,2.12-8.99,0-.28,0-.55-.02-.83-.09,3.52-.78,6.28-2.1,8.25-1.41,2.11-3.17,3.57-5.29,4.36Z" style="fill:#f2f2f2;"/></svg>